<?xml version="1.0" standalone="yes"?>
<svg xmlns="http://www.w3.org/2000/svg" width="1024" height="1024">
<path style="fill:#a9a9a9; stroke:none;" d="M58.6667 97.3333L59.3333 97.6667L58.6667 97.3333z"/>
<path style="fill:#858585; stroke:none;" d="M60 97L61 98L60 97M58.6667 98.3333L59.3333 98.6667L58.6667 98.3333z"/>
<path style="fill:#a349a5; stroke:none;" d="M498 168.654C489.467 170.852 480.635 177.795 473 182.15C456.732 191.431 440.416 200.678 424 209.694C368.388 240.239 313.087 271.517 258 302.999C239.417 313.619 220.579 323.792 202 334.421C196.183 337.749 184.47 341.54 181.742 348.093C178.947 354.81 181 365.794 181 373L181 428L181 621L181 683C181 689.483 178.748 701.31 182.742 706.787C185.79 710.967 192.596 713.337 197 715.85C208.611 722.473 220.369 728.838 232 735.424C274.597 759.544 317.511 783.114 360 807.421C394.513 827.166 429.463 846.147 464 865.85C472.961 870.961 492.483 887.023 503 884.347C512.251 881.993 521.742 874.561 530 869.85C547.945 859.612 566.022 849.604 584 839.424C636.557 809.665 689.493 780.568 742 750.719C760.607 740.141 779.197 729.456 798 719.231C803.429 716.279 815.962 711.849 818.397 705.895C821.11 699.259 819 688.124 819 681L819 625L819 431L819 369C819 362.995 821.378 350.39 817.397 345.529C813.893 341.252 806.75 338.791 802 336.14C789.975 329.427 777.962 322.673 766 315.85C724.482 292.165 682.49 269.314 641 245.579C606.487 225.835 571.538 206.853 537 187.15C528.066 182.054 508.483 165.952 498 168.654z"/>
<path style="fill:#d45cdc; stroke:none;" d="M500 177.029L481 186.769L435 212.694L261 310.421L209 339.694L189.603 352.213L189 370L189 412L189 557L189 662L189 690L190.028 701.621L203 710.001L235 728.001L355 795.424L460 854.424L489 870.769L501 875.971L522 865.15L568 839.306L737 744.306L791 714.001L810.397 701.621L811 684L811 643L811 497L811 390L811 362L809.972 350.61L797 342.421L765 324.421L646 257.576L541 198.576L513 182.85L500 177.029z"/>
<path style="fill:#d45cdc; stroke:none;" d="M457 482L507 482C507.783 444.269 545.878 416.305 582 422.326C611.193 427.191 633.751 454.994 635 484L689 484C688.999 470.951 685.994 458.255 681.656 446C647.594 349.773 506.583 342.528 461.12 433C453.886 447.395 457 466.213 457 482M356 370L356 482L450 482L450 370L356 370z"/>
<path style="fill:#a349a5; stroke:none;" d="M356 482L356 725L450 725L450 482L356 482M457 482C457 502.152 452.153 528.966 462.17 547C500.757 616.473 598.795 631.295 654.911 573.975C679.05 549.316 689 517.786 689 484L635 484C634.814 551.37 544.041 572.308 513.323 513C508.299 503.3 507 492.736 507 482L457 482z"/>
</svg>
