<?xml version="1.0" standalone="yes"?>
<svg xmlns="http://www.w3.org/2000/svg" width="1024" height="1024">
<path style="fill:#a9a9a9; stroke:none;" d="M58.6667 97.3333L59.3333 97.6667L58.6667 97.3333z"/>
<path style="fill:#858585; stroke:none;" d="M60 97L61 98L60 97M58.6667 98.3333L59.3333 98.6667L58.6667 98.3333z"/>
<path style="fill:#f36323; stroke:none;" d="M375 372L448 372C459.826 372 473.781 369.911 485 374C485.012 355.733 490.234 337.538 497.694 321C504.799 305.252 514.787 291.213 527 279C595.668 210.332 713.957 232.598 755.219 320C763.737 338.042 768 358.13 768 378C779.744 373.72 794.613 376 807 376L860 376C869.442 376 879.778 374.804 889 377C889 343.706 880.543 308.048 866.255 278C847.442 238.436 821.806 203.557 787 176.424C681.441 94.1396 526.716 103.284 432 198C411.268 218.732 392.607 243.216 380.309 270C373.927 283.897 375 296.963 375 312L375 372M149 124L149 372L359 372L359 124L149 124z"/>
<path style="fill:#f36323; stroke:none;" d="M149 372L149 912L359 912L359 372L149 372M375 372L375 457C375 468.646 372.053 485.081 376.349 496C385.951 520.404 401.754 543.203 418.729 563C490.828 647.085 611.461 676.908 715 638.947C750.676 625.867 782.408 604.756 809.911 578.714C851.434 539.398 875.378 486.321 886 431C888.599 417.464 889 403.735 889 390C889 386.529 890.507 378.485 886.682 376.603C880.478 373.551 867.873 376 861 376L797 376C790.714 376 774.343 373.103 769.603 377.742C765.796 381.469 767.516 395.652 766.728 401C764.33 417.282 758.742 433.718 750.573 448C712.946 513.779 628.763 540.996 561 505.219C528.415 488.015 502.941 458.044 491.519 423C488.141 412.638 485.283 400.933 485.015 390C484.911 385.754 486.718 376.994 483.397 373.742C478.545 368.993 461.453 372 455 372L375 372z"/>
</svg>
